<svg xmlns="http://www.w3.org/2000/svg" width="312" height="150" viewBox="0 0 312 150" fill="none" role="img" aria-labelledby="descId">
  <style>
    .header {
      font: 600 17px 'Segoe UI', Ubuntu, Sans-Serif;
      fill: #F85D7F;
    }
    @supports(-moz-appearance: auto) {
    /* Selector detects Firefox */
      .header { font-size: 15.5px; }
    }
    .description { font: 400 13px 'Segoe UI', Ubuntu, Sans-Serif; fill: #ffffff }
    .gray { font: 400 12px 'Segoe UI', Ubuntu, Sans-Serif; fill: #ffffff }
    .icon { fill: #F8D866 }
  </style>
  
  <rect x="0.5" y="0.5" rx="4.5" height="99%" stroke="#e4e2e2" width="311" fill="#1F222E" stroke-opacity="0"/>
        
  <text x="25" y="32" class="header" data-testid="header">DuplicateHunter</text>
  <text class="description" y="47">
    <tspan dy="1.2em" x="25">🎯 Identify all files with same data and if</tspan>
    <tspan dy="1.2em" x="25">🎯 wanted eliminated those files.</tspan>
  </text>

  <circle cx="30" cy="122" r="6" fill="#00ADD8"/>
  <text class="gray" x="45" y="127">Go</text>
        
  <svg class="icon" x="79.6375" y="115" viewBox="0 0 16 16" version="1.1" width="16" height="16">
    <path fill-rule="evenodd" d="M8 .25a.75.75 0 01.673.418l1.882 3.815 4.21.612a.75.75 0 01.416 1.279l-3.046 2.97.719 4.192a.75.75 0 01-1.088.791L8 12.347l-3.766 1.98a.75.75 0 01-1.088-.79l.72-4.194L.818 6.374a.75.75 0 01.416-1.28l4.21-.611L7.327.668A.75.75 0 018 .25zm0 2.445L6.615 5.5a.75.75 0 01-.564.41l-3.097.45 2.24 2.184a.75.75 0 01.216.664l-.528 3.084 2.769-1.456a.75.75 0 01.698 0l2.77 1.456-.53-3.084a.75.75 0 01.216-.664l2.24-2.183-3.096-.45a.75.75 0 01-.564-.41L8 2.694v.001z"/>
  </svg>
  <text x="99.6375" y="127" class="gray">0</text>
        
  <svg class="icon" x="143.26875" y="115" viewBox="0 0 16 16" version="1.1" width="16" height="16">
    <path fill-rule="evenodd" d="M5 3.25a.75.75 0 11-1.5 0 .75.75 0 011.5 0zm0 2.122a2.25 2.25 0 10-1.5 0v.878A2.25 2.25 0 005.75 8.5h1.5v2.128a2.251 2.251 0 101.5 0V8.5h1.5a2.25 2.25 0 002.25-2.25v-.878a2.25 2.25 0 10-1.5 0v.878a.75.75 0 01-.75.75h-4.5A.75.75 0 015 6.25v-.878zm3.75 7.378a.75.75 0 11-1.5 0 .75.75 0 011.5 0zm3-8.75a.75.75 0 100-1.5.75.75 0 000 1.5z"/>
  </svg>
  <text x="163.26875" y="127" class="gray">0</text>
</svg>
